<svg width="40" height="40" viewBox="0 0 40 40" fill="none" xmlns="http://www.w3.org/2000/svg">
<rect width="40" height="40" rx="4" fill="#1E1C1F"/>
<path d="M11.5874 9C10.9012 9 10.2431 9.26552 9.75783 9.73815C9.2726 10.2108 9 10.8518 9 11.5202C9 12.1886 9.2726 12.8296 9.75783 13.3022C10.2431 13.7749 10.9012 14.0404 11.5874 14.0404C12.2736 14.0404 12.9317 13.7749 13.417 13.3022C13.9022 12.8296 14.1748 12.1886 14.1748 11.5202C14.1748 10.8518 13.9022 10.2108 13.417 9.73815C12.9317 9.26552 12.2736 9 11.5874 9ZM9.1522 16.1158C9.11183 16.1158 9.07312 16.1315 9.04458 16.1593C9.01604 16.1871 9 16.2248 9 16.2641V31.6818C9 31.7636 9.06819 31.83 9.1522 31.83H14.0226C14.063 31.83 14.1017 31.8144 14.1302 31.7866C14.1588 31.7588 14.1748 31.7211 14.1748 31.6818V16.2641C14.1748 16.2248 14.1588 16.1871 14.1302 16.1593C14.1017 16.1315 14.063 16.1158 14.0226 16.1158H9.1522ZM17.0666 16.1158C17.0262 16.1158 16.9875 16.1315 16.959 16.1593C16.9304 16.1871 16.9144 16.2248 16.9144 16.2641V31.6818C16.9144 31.7636 16.9826 31.83 17.0666 31.83H21.937C21.9774 31.83 22.0161 31.8144 22.0446 31.7866C22.0732 31.7588 22.0892 31.7211 22.0892 31.6818V23.3799C22.0892 22.7902 22.3297 22.2246 22.7579 21.8075C23.186 21.3905 23.7667 21.1562 24.3722 21.1562C24.9777 21.1562 25.5584 21.3905 25.9865 21.8075C26.4147 22.2246 26.6552 22.7902 26.6552 23.3799V31.6818C26.6552 31.7636 26.7234 31.83 26.8074 31.83H31.6778C31.7182 31.83 31.7569 31.8144 31.7854 31.7866C31.814 31.7588 31.83 31.7211 31.83 31.6818V21.4587C31.83 18.5803 29.2609 16.3293 26.3204 16.589C25.4106 16.6703 24.5196 16.8896 23.6794 17.239L22.0892 17.9031V16.2641C22.0892 16.2248 22.0732 16.1871 22.0446 16.1593C22.0161 16.1315 21.9774 16.1158 21.937 16.1158H17.0666Z" fill="white"/>
</svg>
