<svg width="40" height="40" viewBox="0 0 40 40" fill="none" xmlns="http://www.w3.org/2000/svg">
<rect width="40" height="40" rx="4" fill="#1E1C1F"/>
<path d="M20.4517 7C20.1082 7 19.7519 7.08907 19.4592 7.25448L9.99248 12.7259C9.38172 13.0821 9 13.7438 9 14.4563V25.3737C9 26.0862 9.38172 26.7479 9.99248 27.1041L12.4737 28.5292C13.6825 29.1146 14.0897 29.1273 14.6495 29.1273C16.4309 29.1273 17.4616 28.0457 17.4616 26.1626V15.3852C17.4616 15.2325 17.3343 15.1053 17.1816 15.1053H15.9983C15.8329 15.1053 15.7056 15.2325 15.7056 15.3852V26.1626C15.7056 27.0023 14.8404 27.8294 13.4534 27.1296L10.845 25.6409C10.8022 25.6106 10.7671 25.5706 10.7428 25.5241C10.7185 25.4777 10.7055 25.4261 10.705 25.3737V14.4563C10.705 14.3418 10.7559 14.24 10.845 14.1891L20.3118 8.73048C20.3881 8.67959 20.5153 8.67959 20.5917 8.73048L30.0584 14.1891C30.1475 14.24 30.1984 14.3418 30.1984 14.4563V25.3737C30.1984 25.4755 30.1475 25.5772 30.0584 25.6409L20.5917 31.0995C20.5153 31.1504 20.3881 31.1504 20.299 31.0995L17.9069 29.649C17.8051 29.6108 17.7033 29.5981 17.6397 29.6362C16.9653 30.018 16.8381 30.0943 16.2146 30.2852C16.0619 30.3361 15.8201 30.4251 16.3037 30.6923L19.4592 32.5628C19.7646 32.7409 20.0954 32.83 20.4517 32.83C20.808 32.83 21.1388 32.7409 21.4442 32.5628L30.911 27.1041C31.5217 26.7479 31.9034 26.0862 31.9034 25.3737V14.4563C31.9034 13.7438 31.5217 13.0821 30.911 12.7259L21.4442 7.25448C21.1516 7.08907 20.808 7 20.4517 7ZM22.9966 14.8253C20.299 14.8253 18.6831 15.9578 18.6831 17.8664C18.6831 19.915 20.2863 20.513 22.882 20.7675C25.974 21.0729 26.2158 21.531 26.2158 22.1417C26.2158 23.1978 25.3632 23.6432 23.3783 23.6432C20.8589 23.6432 20.3245 23.0197 20.1336 21.7727C20.1202 21.7083 20.0851 21.6504 20.0342 21.6087C19.9832 21.567 19.9195 21.5441 19.8537 21.5437H18.6322C18.4795 21.5437 18.365 21.6582 18.365 21.8236C18.365 23.4014 19.2302 25.31 23.3783 25.31C26.3684 25.31 28.0862 24.1267 28.0862 22.0654C28.0862 20.0168 26.712 19.4824 23.7982 19.0879C20.8589 18.7062 20.5662 18.5026 20.5662 17.8155C20.5662 17.2429 20.8207 16.4795 22.9966 16.4795C24.9052 16.4795 25.6559 16.8994 25.9486 18.21C25.974 18.3372 26.0885 18.4263 26.2158 18.4263H27.45C27.5136 18.4263 27.59 18.4008 27.6409 18.3372C27.6918 18.2863 27.7299 18.21 27.7045 18.1336C27.5263 15.8687 26.0249 14.8253 22.9966 14.8253Z" fill="white"/>
</svg>
