<svg width="40" height="40" viewBox="0 0 40 40" fill="none" xmlns="http://www.w3.org/2000/svg">
<rect width="40" height="40" rx="4" fill="#1E1C1F"/>
<path fill-rule="evenodd" clip-rule="evenodd" d="M23.6259 8C24.5704 7.99994 25.4926 8.28755 26.2697 8.82456C27.0468 9.36156 27.642 10.1225 27.976 11.0061C28.31 11.8897 28.367 12.854 28.1394 13.7708C27.9118 14.6876 27.4104 15.5134 26.702 16.1382C27.5685 16.9006 28.1205 17.9581 28.2507 19.1049C28.3809 20.2518 28.0799 21.406 27.4064 22.3433C26.7328 23.2806 25.7348 23.9339 24.6064 24.1762C23.4779 24.4185 22.2997 24.2325 21.3007 23.6543V26.6015C21.3007 27.3786 21.1059 28.1433 20.7343 28.8257C20.3626 29.5081 19.8258 30.0864 19.1731 30.508C18.5203 30.9295 17.7723 31.1807 16.9974 31.2387C16.2226 31.2967 15.4455 31.1595 14.7373 30.8398C14.0291 30.5201 13.4122 30.028 12.9432 29.4085C12.4741 28.789 12.1677 28.0619 12.0521 27.2935C11.9364 26.5251 12.0152 25.7399 12.2811 25.0098C12.547 24.2796 12.9917 23.6278 13.5744 23.1137C13.0796 22.6773 12.6834 22.1406 12.412 21.5393C12.1406 20.9379 12.0003 20.2857 12.0003 19.626C12.0003 18.9662 12.1406 18.314 12.412 17.7126C12.6834 17.1113 13.0796 16.5746 13.5744 16.1382C12.866 15.5134 12.3646 14.6876 12.137 13.7708C11.9094 12.854 11.9664 11.8897 12.3004 11.0061C12.6344 10.1225 13.2295 9.36156 14.0066 8.82456C14.7837 8.28755 15.7059 7.99994 16.6505 8H23.6259ZM18.9756 24.2763H16.6505C16.1907 24.2763 15.7411 24.4127 15.3588 24.6682C14.9764 24.9237 14.6784 25.2868 14.5024 25.7117C14.3264 26.1366 14.2804 26.6041 14.3701 27.0552C14.4598 27.5062 14.6812 27.9205 15.0064 28.2457C15.3316 28.5709 15.7459 28.7923 16.1969 28.882C16.6479 28.9718 17.1154 28.9257 17.5403 28.7497C17.9652 28.5737 18.3283 28.2757 18.5838 27.8933C18.8393 27.511 18.9756 27.0614 18.9756 26.6015V24.2763ZM18.9756 17.3008H16.6505C16.0339 17.3008 15.4425 17.5457 15.0064 17.9818C14.5704 18.4179 14.3254 19.0093 14.3254 19.626C14.3254 20.2426 14.5704 20.8341 15.0064 21.2701C15.4425 21.7062 16.0339 21.9511 16.6505 21.9511H18.9756V17.3008ZM23.6259 17.3008C23.0092 17.3008 22.4178 17.5457 21.9818 17.9818C21.5457 18.4179 21.3007 19.0093 21.3007 19.626C21.3007 20.2426 21.5457 20.8341 21.9818 21.2701C22.4178 21.7062 23.0092 21.9511 23.6259 21.9511C24.2425 21.9511 24.8339 21.7062 25.27 21.2701C25.706 20.8341 25.951 20.2426 25.951 19.626C25.951 19.0093 25.706 18.4179 25.27 17.9818C24.8339 17.5457 24.2425 17.3008 23.6259 17.3008ZM23.6259 10.3252H21.3007V14.9756H23.6259C24.2292 14.9783 24.81 14.7463 25.2455 14.3287C25.681 13.9111 25.9371 13.3406 25.9597 12.7376C25.9824 12.1347 25.7698 11.5466 25.3668 11.0975C24.9638 10.6484 24.4021 10.3736 23.8002 10.331L23.6259 10.3252ZM18.9756 10.3252H16.6505C16.0339 10.3252 15.4425 10.5702 15.0064 11.0062C14.5704 11.4423 14.3254 12.0337 14.3254 12.6504C14.3254 13.2671 14.5704 13.8585 15.0064 14.2945C15.4425 14.7306 16.0339 14.9756 16.6505 14.9756H18.9756V10.3252Z" fill="white"/>
</svg>
