<svg width="40" height="40" viewBox="0 0 40 40" fill="none" xmlns="http://www.w3.org/2000/svg">
<rect width="40" height="40" rx="4" fill="#1E1C1F"/>
<path d="M14.54 7H25.46C29.62 7 33 10.38 33 14.54V25.46C33 27.4597 32.2056 29.3776 30.7916 30.7916C29.3776 32.2056 27.4597 33 25.46 33H14.54C10.38 33 7 29.62 7 25.46V14.54C7 12.5403 7.79439 10.6224 9.20842 9.20842C10.6224 7.79439 12.5403 7 14.54 7ZM14.28 9.6C13.0388 9.6 11.8484 10.0931 10.9707 10.9707C10.0931 11.8484 9.6 13.0388 9.6 14.28V25.72C9.6 28.307 11.693 30.4 14.28 30.4H25.72C26.9612 30.4 28.1516 29.9069 29.0293 29.0293C29.9069 28.1516 30.4 26.9612 30.4 25.72V14.28C30.4 11.693 28.307 9.6 25.72 9.6H14.28ZM26.825 11.55C27.256 11.55 27.6693 11.7212 27.974 12.026C28.2788 12.3307 28.45 12.744 28.45 13.175C28.45 13.606 28.2788 14.0193 27.974 14.324C27.6693 14.6288 27.256 14.8 26.825 14.8C26.394 14.8 25.9807 14.6288 25.6759 14.324C25.3712 14.0193 25.2 13.606 25.2 13.175C25.2 12.744 25.3712 12.3307 25.6759 12.026C25.9807 11.7212 26.394 11.55 26.825 11.55ZM20 13.5C21.7239 13.5 23.3772 14.1848 24.5962 15.4038C25.8152 16.6228 26.5 18.2761 26.5 20C26.5 21.7239 25.8152 23.3772 24.5962 24.5962C23.3772 25.8152 21.7239 26.5 20 26.5C18.2761 26.5 16.6228 25.8152 15.4038 24.5962C14.1848 23.3772 13.5 21.7239 13.5 20C13.5 18.2761 14.1848 16.6228 15.4038 15.4038C16.6228 14.1848 18.2761 13.5 20 13.5ZM20 16.1C18.9657 16.1 17.9737 16.5109 17.2423 17.2423C16.5109 17.9737 16.1 18.9657 16.1 20C16.1 21.0343 16.5109 22.0263 17.2423 22.7577C17.9737 23.4891 18.9657 23.9 20 23.9C21.0343 23.9 22.0263 23.4891 22.7577 22.7577C23.4891 22.0263 23.9 21.0343 23.9 20C23.9 18.9657 23.4891 17.9737 22.7577 17.2423C22.0263 16.5109 21.0343 16.1 20 16.1Z" fill="white"/>
</svg>
