<svg width="40" height="40" viewBox="0 0 40 40" fill="none" xmlns="http://www.w3.org/2000/svg">
<rect width="40" height="40" rx="4" fill="#1E1C1F"/>
<path d="M20.0061 17.0675C21.3481 17.0675 22.4426 18.162 22.4426 19.53C22.4426 20.8329 21.3481 21.9404 20.0061 21.9404C18.6642 21.9404 17.5697 20.8329 17.5697 19.53C17.5697 18.162 18.6642 17.0675 20.0061 17.0675ZM13.9737 29.9532C14.7946 30.4483 16.5925 29.6926 18.6642 27.7382C17.9866 26.9695 17.3222 26.1357 16.6968 25.2627C15.6469 25.1615 14.6032 25.005 13.5698 24.7937C12.9054 27.5819 13.1529 29.4972 13.9737 29.9532ZM14.8988 22.4745L14.5209 21.8101C14.3776 22.1879 14.2343 22.5657 14.1431 22.9306C14.4949 23.0087 14.8858 23.0739 15.2897 23.139L14.8988 22.4745ZM23.4197 21.4843L24.4751 19.53L23.4197 17.5757C23.0289 16.8851 22.6119 16.2728 22.2341 15.6604C21.5305 15.6213 20.7879 15.6213 20.0061 15.6213C19.2244 15.6213 18.4817 15.6213 17.7782 15.6604C17.4003 16.2728 16.9834 16.8851 16.5925 17.5757L15.5372 19.53L16.5925 21.4843C16.9834 22.1749 17.4003 22.7872 17.7782 23.3996C18.4817 23.4387 19.2244 23.4387 20.0061 23.4387C20.7879 23.4387 21.5305 23.4387 22.2341 23.3996C22.6119 22.7872 23.0289 22.1749 23.4197 21.4843ZM20.0061 12.7289C19.7586 13.0155 19.498 13.3152 19.2374 13.667H20.7748C20.5143 13.3152 20.2537 13.0155 20.0061 12.7289ZM20.0061 26.3311C20.2537 26.0445 20.5143 25.7448 20.7748 25.393H19.2374C19.498 25.7448 19.7586 26.0445 20.0061 26.3311ZM26.0255 9.10683C25.2177 8.61173 23.4197 9.36741 21.3481 11.3218C22.0256 12.0905 22.6901 12.9243 23.3155 13.7973C24.3839 13.9015 25.4392 14.0578 26.4424 14.2663C27.1069 11.4781 26.8594 9.56284 26.0255 9.10683ZM25.1135 16.5855L25.4913 17.2499C25.6346 16.8721 25.778 16.4943 25.8692 16.1294C25.5174 16.0513 25.1265 15.9861 24.7226 15.921L25.1135 16.5855ZM27.0027 7.40003C28.9179 8.49447 29.1264 11.3739 28.3186 14.7353C31.628 15.7125 34.0123 17.3281 34.0123 19.53C34.0123 21.7319 31.628 23.3475 28.3186 24.3247C29.1264 27.6861 28.9179 30.5655 27.0027 31.66C25.1005 32.7544 22.5077 31.5036 20.0061 29.1193C17.5046 31.5036 14.9118 32.7544 12.9966 31.66C11.0943 30.5655 10.8859 27.6861 11.6937 24.3247C8.3843 23.3475 6 21.7319 6 19.53C6 17.3281 8.3843 15.7125 11.6937 14.7353C10.8859 11.3739 11.0943 8.49447 12.9966 7.40003C14.9118 6.3056 17.5046 7.55638 20.0061 9.94068C22.5077 7.55638 25.1005 6.3056 27.0027 7.40003ZM26.6249 19.53C27.0678 20.5072 27.4587 21.4843 27.7844 22.4745C30.5205 21.6537 32.0579 20.4811 32.0579 19.53C32.0579 18.5789 30.5205 17.4063 27.7844 16.5855C27.4587 17.5757 27.0678 18.5528 26.6249 19.53ZM13.3874 19.53C12.9444 18.5528 12.5536 17.5757 12.2278 16.5855C9.49176 17.4063 7.95434 18.5789 7.95434 19.53C7.95434 20.4811 9.49176 21.6537 12.2278 22.4745C12.5536 21.4843 12.9444 20.5072 13.3874 19.53ZM25.1135 22.4745L24.7226 23.139C25.1265 23.0739 25.5174 23.0087 25.8692 22.9306C25.778 22.5657 25.6346 22.1879 25.4913 21.8101L25.1135 22.4745ZM21.3481 27.7382C23.4197 29.6926 25.2177 30.4483 26.0255 29.9532C26.8594 29.4972 27.1069 27.5819 26.4424 24.7937C25.4392 25.0022 24.3839 25.1585 23.3155 25.2627C22.6901 26.1357 22.0256 26.9695 21.3481 27.7382ZM14.8988 16.5855L15.2897 15.921C14.8858 15.9861 14.4949 16.0513 14.1431 16.1294C14.2343 16.4943 14.3776 16.8721 14.5209 17.2499L14.8988 16.5855ZM18.6642 11.3218C16.5925 9.36741 14.7946 8.61173 13.9737 9.10683C13.1529 9.56284 12.9054 11.4781 13.5698 14.2663C14.6032 14.055 15.6469 13.8985 16.6968 13.7973C17.3222 12.9243 17.9866 12.0905 18.6642 11.3218Z" fill="white"/>
</svg>
