<svg width="40" height="40" viewBox="0 0 40 40" fill="none" xmlns="http://www.w3.org/2000/svg">
<rect width="40" height="40" rx="4" fill="#1E1C1F"/>
<path d="M20 12C16.262 12 13.938 13.8842 13 17.6667C14.4 15.7825 16.038 15.0742 17.9 15.5417C18.964 15.8108 19.734 16.59 20.574 17.4542C21.946 18.8708 23.5 20.5 27 20.5C30.738 20.5 33.062 18.6158 34 14.8333C32.6 16.7175 30.962 17.4258 29.1 16.9583C28.036 16.6892 27.28 15.91 26.426 15.0458C25.054 13.6292 23.5 12 20 12ZM13 20.5C9.262 20.5 6.938 22.3842 6 26.1667C7.4 24.2825 9.038 23.5742 10.9 24.0417C11.964 24.3108 12.72 25.09 13.574 25.9542C14.946 27.3708 16.5 29 20 29C23.738 29 26.062 27.1158 27 23.3333C25.6 25.2175 23.962 25.9258 22.1 25.4583C21.036 25.1892 20.28 24.41 19.426 23.5458C18.054 22.1292 16.5 20.5 13 20.5Z" fill="white"/>
</svg>
